<svg aria-hidden="true" style="position: absolute; width: 0; height: 0; overflow: hidden;" version="1.1" xmlns="http://www.w3.org/2000/svg" xmlns:xlink="http://www.w3.org/1999/xlink">
<defs>
<symbol id="icon-close-outline" viewBox="0 0 32 32">
<title>close-outline</title>
<path d="M16 26.667c-5.88 0-10.667-4.787-10.667-10.667s4.787-10.667 10.667-10.667c5.88 0 10.667 4.787 10.667 10.667s-4.787 10.667-10.667 10.667zM16 2.667c-7.373 0-13.333 5.96-13.333 13.333s5.96 13.333 13.333 13.333c7.373 0 13.333-5.96 13.333-13.333s-5.96-13.333-13.333-13.333zM19.453 10.667l-3.453 3.453-3.453-3.453-1.88 1.88 3.453 3.453-3.453 3.453 1.88 1.88 3.453-3.453 3.453 3.453 1.88-1.88-3.453-3.453 3.453-3.453-1.88-1.88z"></path>
</symbol>
<symbol id="icon-close" viewBox="0 0 32 32">
<title>close</title>
<path d="M17.947 16l7.387 7.387v1.947h-1.947l-7.387-7.387-7.387 7.387h-1.947v-1.947l7.387-7.387-7.387-7.387v-1.947h1.947l7.387 7.387 7.387-7.387h1.947v1.947l-7.387 7.387z"></path>
</symbol>
<symbol id="icon-calendar" viewBox="0 0 32 32">
<title>calendar</title>
<path d="M25.333 25.333h-18.667v-14.667h18.667zM21.333 1.333v2.667h-10.667v-2.667h-2.667v2.667h-1.333c-1.48 0-2.667 1.187-2.667 2.667v18.667c0 1.467 1.2 2.667 2.667 2.667h18.667c1.467 0 2.667-1.2 2.667-2.667v-18.667c0-1.48-1.2-2.667-2.667-2.667h-1.333v-2.667zM22.667 16h-6.667v6.667h6.667v-6.667z"></path>
</symbol>
<symbol id="icon-check" viewBox="0 0 32 32">
<title>check</title>
<path d="M28 9.333l-16 16-7.333-7.333 1.88-1.88 5.453 5.44 14.12-14.107 1.88 1.88z"></path>
</symbol>
<symbol id="icon-error" viewBox="0 0 32 32">
<title>error</title>
<path d="M16 5.333c-5.891 0-10.667 4.776-10.667 10.667s4.776 10.667 10.667 10.667c5.891 0 10.667-4.776 10.667-10.667v0c0-5.891-4.776-10.667-10.667-10.667v0zM16 24.889c-4.909 0-8.889-3.98-8.889-8.889s3.98-8.889 8.889-8.889c4.909 0 8.889 3.98 8.889 8.889v0c0 4.909-3.98 8.889-8.889 8.889v0z"></path>
<path d="M16 17.84c-0.638 0-1.156-0.517-1.156-1.156v-5.333c0-0.638 0.517-1.156 1.156-1.156s1.156 0.517 1.156 1.156v0 5.333c0 0.638-0.517 1.156-1.156 1.156v0z"></path>
<path d="M17.289 20.462c0 0.736-0.597 1.333-1.333 1.333s-1.333-0.597-1.333-1.333c0-0.736 0.597-1.333 1.333-1.333s1.333 0.597 1.333 1.333z"></path>
</symbol>
<symbol id="icon-facebook" viewBox="0 0 32 32">
<title>facebook</title>
<path d="M16 0.64c-8.483 0-15.36 6.877-15.36 15.36s6.877 15.36 15.36 15.36 15.36-6.877 15.36-15.36-6.877-15.36-15.36-15.36zM19.638 11.254h-2.309c-0.274 0-0.578 0.36-0.578 0.838v1.667h2.888l-0.437 2.378h-2.451v7.138h-2.725v-7.138h-2.472v-2.378h2.472v-1.398c0-2.006 1.392-3.637 3.302-3.637h2.309v2.53z"></path>
</symbol>
<symbol id="icon-information" viewBox="0 0 32 32">
<title>information</title>
<path d="M14.667 12h2.667v-2.667h-2.667zM16 26.667c-5.88 0-10.667-4.787-10.667-10.667s4.787-10.667 10.667-10.667c5.88 0 10.667 4.787 10.667 10.667s-4.787 10.667-10.667 10.667zM16 2.667c-7.36 0-13.333 5.973-13.333 13.333s5.973 13.333 13.333 13.333c7.36 0 13.333-5.973 13.333-13.333s-5.973-13.333-13.333-13.333zM14.667 22.667h2.667v-8h-2.667v8z"></path>
</symbol>
<symbol id="icon-instagram" viewBox="0 0 32 32">
<title>instagram</title>
<path d="M22.497 11.085c-0.287-0.729-0.854-1.295-1.565-1.575l-0.019-0.007c-0.459-0.175-0.99-0.28-1.544-0.287l-0.003-0c-0.878-0.040-1.142-0.050-3.367-0.050s-2.488 0.010-3.367 0.050c-0.558 0.007-1.089 0.111-1.58 0.297l0.032-0.011c-0.729 0.287-1.295 0.854-1.575 1.565l-0.007 0.019c-0.175 0.459-0.28 0.99-0.287 1.544l-0 0.003c-0.040 0.878-0.050 1.142-0.050 3.367s0.010 2.488 0.050 3.367c0.007 0.558 0.111 1.089 0.297 1.58l-0.011-0.032c0.287 0.729 0.854 1.295 1.565 1.575l0.019 0.006c0.459 0.175 0.99 0.28 1.544 0.287l0.003 0c0.878 0.040 1.142 0.048 3.367 0.048s2.488-0.008 3.367-0.050c0.557-0.006 1.089-0.11 1.58-0.296l-0.032 0.011c0.729-0.287 1.295-0.854 1.575-1.565l0.006-0.019c0.175-0.459 0.28-0.99 0.287-1.544l0-0.003c0.040-0.878 0.048-1.142 0.048-3.367s-0.008-2.488-0.050-3.367c-0.006-0.557-0.11-1.089-0.296-1.58l0.011 0.032zM16 20.28c-2.364 0-4.28-1.916-4.28-4.28s1.916-4.28 4.28-4.28c2.364 0 4.28 1.916 4.28 4.28v0c0 2.364-1.916 4.28-4.28 4.28v0zM20.448 12.552c-0.552 0-1-0.448-1-1s0.448-1 1-1c0.552 0 1 0.448 1 1v0c0 0.552-0.448 1-1 1v0z"></path>
<path d="M16 0c-8.837 0-16 7.163-16 16s7.163 16 16 16c8.837 0 16-7.163 16-16v0c0-8.837-7.163-16-16-16v0zM24.283 19.435c-0.015 0.731-0.156 1.424-0.402 2.065l0.014-0.042c-0.442 1.122-1.314 1.994-2.408 2.427l-0.029 0.010c-0.599 0.232-1.291 0.373-2.015 0.388l-0.007 0c-0.89 0.040-1.173 0.050-3.437 0.050s-2.547-0.010-3.437-0.050c-0.73-0.016-1.423-0.157-2.064-0.402l0.042 0.014c-1.122-0.442-1.994-1.314-2.427-2.408l-0.010-0.029c-0.232-0.599-0.373-1.291-0.388-2.015l-0-0.007c-0.040-0.89-0.050-1.173-0.050-3.437s0.010-2.547 0.050-3.437c0.015-0.73 0.155-1.423 0.401-2.064l-0.014 0.042c0.442-1.123 1.315-1.996 2.409-2.428l0.029-0.010c0.599-0.231 1.292-0.372 2.015-0.387l0.006-0c0.89-0.040 1.173-0.050 3.437-0.050s2.547 0.010 3.437 0.050c0.73 0.015 1.423 0.155 2.064 0.401l-0.042-0.014c1.123 0.443 1.995 1.315 2.427 2.409l0.010 0.029c0.232 0.599 0.373 1.291 0.388 2.015l0 0.007c0.040 0.89 0.050 1.173 0.050 3.437s-0.010 2.547-0.050 3.437z"></path>
<path d="M18.778 16c0 1.534-1.244 2.778-2.778 2.778s-2.778-1.244-2.778-2.778c0-1.534 1.244-2.778 2.778-2.778s2.778 1.244 2.778 2.778z"></path>
</symbol>
<symbol id="icon-linkedin" viewBox="0 0 32 32">
<title>linkedin</title>
<path d="M16 0.64c-8.483 0-15.36 6.877-15.36 15.36s6.877 15.36 15.36 15.36 15.36-6.877 15.36-15.36-6.877-15.36-15.36-15.36zM12.24 22.366h-3.11v-10.010h3.11v10.010zM10.666 11.128c-0.982 0-1.618-0.696-1.618-1.557 0-0.878 0.654-1.554 1.658-1.554s1.618 0.675 1.637 1.554c0 0.861-0.634 1.557-1.677 1.557zM23.6 22.366h-3.11v-5.547c0-1.291-0.451-2.168-1.576-2.168-0.859 0-1.37 0.594-1.595 1.165-0.083 0.203-0.104 0.491-0.104 0.778v5.771h-3.112v-6.816c0-1.25-0.040-2.294-0.082-3.194h2.702l0.142 1.39h0.062c0.41-0.653 1.413-1.616 3.091-1.616 2.046 0 3.581 1.371 3.581 4.318v5.918z"></path>
</symbol>
<symbol id="icon-lock" viewBox="0 0 32 32">
<title>lock</title>
<path d="M16 22.667c1.467 0 2.667-1.2 2.667-2.667 0-1.48-1.2-2.667-2.667-2.667s-2.667 1.2-2.667 2.667c0 1.467 1.2 2.667 2.667 2.667zM24 10.667c1.467 0 2.667 1.2 2.667 2.667v13.333c0 1.467-1.2 2.667-2.667 2.667h-16c-1.467 0-2.667-1.2-2.667-2.667v-13.333c0-1.48 1.2-2.667 2.667-2.667h1.333v-2.667c0-3.68 2.987-6.667 6.667-6.667s6.667 2.987 6.667 6.667v2.667h1.333zM16 4c-2.213 0-4 1.787-4 4v2.667h8v-2.667c0-2.213-1.787-4-4-4z"></path>
</symbol>
<symbol id="icon-pinterest" viewBox="0 0 32 32">
<title>pinterest</title>
<path d="M16 0.64c-8.483 0-15.36 6.877-15.36 15.36s6.877 15.36 15.36 15.36 15.36-6.877 15.36-15.36-6.877-15.36-15.36-15.36zM17.051 19.64c-0.986-0.075-1.398-0.563-2.17-1.030-0.424 2.226-0.942 4.36-2.478 5.475-0.475-3.366 0.694-5.891 1.238-8.574-0.926-1.56 0.11-4.698 2.066-3.926 2.405 0.954-2.083 5.8 0.93 6.406 3.146 0.63 4.43-5.459 2.48-7.437-2.819-2.859-8.203-0.066-7.541 4.027 0.16 1 1.195 1.304 0.413 2.685-1.803-0.4-2.342-1.822-2.272-3.718 0.11-3.104 2.789-5.278 5.474-5.578 3.397-0.378 6.584 1.246 7.026 4.443 0.494 3.606-1.534 7.509-5.165 7.227z"></path>
</symbol>
<symbol id="icon-triangle-down" viewBox="0 0 32 32">
<title>triangle-down</title>
<path d="M4 10l12 12 12-12h-24z"></path>
</symbol>
<symbol id="icon-twitter" viewBox="0 0 32 32">
<title>twitter</title>
<path d="M16 0.64c-8.483 0-15.36 6.877-15.36 15.36s6.877 15.36 15.36 15.36 15.36-6.877 15.36-15.36-6.877-15.36-15.36-15.36zM22.248 13.222c0.006 0.131 0.008 0.262 0.008 0.39 0 4-3.042 8.61-8.606 8.61-0.004 0-0.009 0-0.014 0-1.717 0-3.317-0.507-4.655-1.38l0.033 0.020c0.235 0.029 0.477 0.040 0.722 0.040 1.418 0 2.722-0.482 3.757-1.294-1.317-0.027-2.426-0.889-2.819-2.078l-0.006-0.021c0.171 0.034 0.367 0.053 0.568 0.053 0.284 0 0.558-0.039 0.818-0.111l-0.021 0.005c-1.394-0.289-2.427-1.507-2.427-2.966v-0.037c0.408 0.226 0.875 0.363 1.371 0.379-0.818-0.55-1.348-1.472-1.348-2.517 0-0.562 0.153-1.088 0.42-1.538l-0.008 0.014c1.499 1.833 3.715 3.031 6.214 3.162l0.021 0.001c-0.051-0.208-0.081-0.448-0.081-0.694 0-1.671 1.355-3.026 3.026-3.026 0.871 0 1.657 0.368 2.209 0.958l0.002 0.002c0.724-0.146 1.367-0.401 1.947-0.75l-0.027 0.015c-0.234 0.713-0.704 1.295-1.316 1.668l-0.013 0.008c0.645-0.079 1.232-0.248 1.776-0.494l-0.038 0.015c-0.414 0.614-0.914 1.133-1.491 1.554l-0.017 0.012z"></path>
</symbol>
<symbol id="icon-youtube" viewBox="0 0 32 32">
<title>youtube</title>
<path d="M18.565 15.733l-3.594-1.677c-0.314-0.146-0.571 0.018-0.571 0.365v3.158c0 0.347 0.258 0.51 0.571 0.365l3.592-1.677c0.315-0.147 0.315-0.387 0.002-0.534zM16 0.64c-8.483 0-15.36 6.877-15.36 15.36s6.877 15.36 15.36 15.36 15.36-6.877 15.36-15.36-6.877-15.36-15.36-15.36zM16 22.24c-7.862 0-8-0.709-8-6.24s0.138-6.24 8-6.24 8 0.709 8 6.24-0.138 6.24-8 6.24z"></path>
</symbol>
</defs>
</svg>
